# xmcd
#
# Track frame offsets:
#	150
#	18244
#	47737
#	73631
#
# Disc length: 1281 seconds
#
# Revision: 3
# Processed by: cddbd v1.5.2PL0 Copyright (c) Steve Scherf et al.
# Submitted via: EasyCDDAExtractor 16.0.8.2
#
DISCID=2c04ff04
DTITLE=DJ Crack - The Centory of E
DYEAR=1996
DGENRE=Country
TTITLE0=Century of E (short)
TTITLE1=Century of E (long)
TTITLE2=echolot (original mix)
TTITLE3=Sounds (chill out relax mix)
EXTD=
EXTT0=
EXTT1=
EXTT2=
EXTT3=
PLAYORDER=
